<?xml version="1.0" standalone="no"?>
<!DOCTYPE svg PUBLIC "-//W3C//DTD SVG 20010904//EN"
 "http://www.w3.org/TR/2001/REC-SVG-20010904/DTD/svg10.dtd">
<svg version="1.0" xmlns="http://www.w3.org/2000/svg"
 width="260.000000pt" height="260.000000pt" viewBox="0 0 260.000000 260.000000"
 preserveAspectRatio="xMidYMid meet">
<metadata>
Created by potrace 1.11, written by Peter Selinger 2001-2013
</metadata>
<g transform="translate(0.000000,260.000000) scale(0.100000,-0.100000)"
fill="#000000" stroke="none">
<path d="M1206 2563 c-1 -1 -29 -5 -61 -9 -77 -9 -100 -12 -100 -14 0 -1 -11
-3 -25 -6 -122 -21 -347 -125 -470 -218 -70 -52 -192 -172 -253 -246 -64 -79
-176 -299 -191 -376 -3 -11 -9 -32 -15 -48 -7 -16 -9 -31 -7 -34 3 -2 1 -12
-4 -21 -8 -16 -18 -66 -26 -136 -5 -42 -5 -235 -1 -265 3 -14 8 -49 11 -79 4
-29 14 -71 21 -92 8 -22 15 -43 15 -47 3 -23 14 -59 23 -69 5 -7 7 -13 3 -13
-9 0 59 -144 101 -214 89 -150 266 -334 322 -336 19 0 51 39 51 62 0 10 -34
51 -76 91 -175 166 -302 395 -340 612 -3 17 -9 48 -13 70 -14 81 -3 313 19
395 5 19 10 38 10 42 1 18 61 171 86 220 72 143 200 293 339 397 119 90 342
185 476 204 19 3 34 6 34 7 0 5 301 6 310 1 6 -3 21 -7 35 -8 130 -14 355
-112 486 -211 206 -156 351 -368 414 -607 30 -115 35 -155 35 -300 -1 -152 -6
-191 -41 -306 -14 -46 -28 -93 -31 -104 -3 -11 -26 -58 -50 -105 -65 -123
-167 -253 -267 -337 -44 -37 -53 -76 -25 -104 11 -11 28 -19 38 -19 38 0 166
123 258 247 29 40 53 75 53 78 0 3 11 22 24 43 53 85 114 251 142 387 26 130
24 361 -4 460 -5 17 -7 36 -5 43 3 6 0 12 -7 12 -6 0 -9 4 -6 9 7 11 -42 156
-80 236 -47 102 -148 246 -229 328 -78 79 -212 187 -233 187 -5 0 -12 4 -14 8
-5 13 -115 71 -122 65 -3 -4 -6 0 -6 7 0 7 -3 10 -7 7 -3 -4 -11 -3 -17 2 -32
26 -251 86 -361 98 -46 5 -215 10 -219 6z"/>
<path d="M1189 2166 c-2 -2 -26 -7 -54 -11 -105 -14 -241 -68 -353 -142 -55
-36 -222 -197 -222 -214 0 -4 -7 -14 -15 -23 -22 -21 -93 -169 -115 -236 -18
-56 -27 -94 -35 -155 -6 -39 -6 -202 0 -240 13 -87 18 -111 27 -122 6 -7 8
-13 4 -13 -8 0 28 -92 66 -165 33 -66 122 -187 162 -222 29 -25 44 -29 69 -19
29 13 19 49 -29 100 -78 84 -140 187 -181 301 -53 148 -53 370 2 525 21 61 87
190 97 190 4 0 8 7 8 15 0 8 5 15 10 15 6 0 10 5 10 11 0 15 129 141 184 179
265 182 622 192 898 24 55 -33 188 -155 228 -209 134 -178 193 -444 144 -657
-4 -18 -8 -40 -9 -48 -1 -8 -7 -26 -13 -40 -5 -14 -18 -45 -28 -70 -22 -57
-89 -161 -142 -223 -43 -49 -52 -77 -29 -94 32 -26 87 18 165 133 122 179 183
433 150 628 -5 28 -10 62 -12 76 -6 40 -45 149 -73 204 -86 171 -219 309 -383
398 -50 27 -156 71 -180 74 -22 3 -71 14 -105 23 -30 8 -239 13 -246 7z"/>
<path d="M1142 1839 c-103 -27 -189 -77 -267 -154 -39 -38 -78 -85 -86 -102
-7 -18 -17 -33 -21 -33 -5 0 -8 -6 -8 -12 0 -7 -6 -25 -14 -39 -11 -22 -19
-46 -33 -99 -2 -8 -5 -32 -7 -53 -2 -21 -6 -40 -9 -43 -3 -3 -4 -17 -2 -32 2
-15 7 -54 11 -87 4 -33 8 -62 9 -65 31 -113 112 -250 150 -256 37 -5 33 23
-14 96 -76 121 -95 183 -93 315 1 147 49 260 152 365 63 64 174 132 240 146
253 54 473 -36 601 -245 56 -92 74 -160 74 -276 0 -116 -17 -182 -69 -268 -46
-75 -51 -93 -30 -101 20 -8 50 17 71 59 9 16 19 32 23 35 12 9 61 172 56 186
-3 7 -2 15 2 18 9 6 7 126 -3 181 -35 194 -175 364 -362 440 -82 33 -103 37
-213 39 -64 2 -116 -3 -158 -15z"/>
<path d="M1190 1457 c-99 -55 -141 -174 -97 -278 13 -33 12 -39 -33 -142 -26
-59 -50 -110 -53 -114 -4 -3 -7 -15 -7 -25 0 -10 -4 -18 -10 -18 -5 0 -10 -6
-10 -13 0 -10 -100 -243 -160 -372 -9 -20 -42 -95 -45 -105 -1 -3 -9 -22 -18
-42 -10 -21 -17 -42 -17 -48 0 -5 -3 -10 -8 -10 -12 0 -34 -72 -34 -113 0
-104 133 -165 209 -96 24 23 95 160 96 187 0 6 4 12 9 12 4 0 7 3 6 8 -1 4 3
18 9 32 6 14 14 32 17 40 3 8 10 22 15 30 5 8 44 96 87 195 42 99 91 209 107
245 17 36 32 71 33 78 3 16 12 27 17 21 2 -2 57 -125 122 -274 64 -148 127
-292 140 -320 12 -27 39 -89 59 -136 47 -108 78 -140 143 -146 42 -4 52 -1 85
27 39 32 60 83 51 122 -3 13 -46 115 -95 228 -100 227 -95 216 -172 390 -31
68 -56 130 -56 137 0 7 -5 13 -10 13 -6 0 -9 3 -8 8 1 4 -8 30 -21 57 -52 115
-54 123 -42 168 30 105 -19 214 -116 258 -56 26 -143 24 -193 -4z"/>
</g>
</svg>
